<?xml version="1.0" encoding="UTF-8" standalone="no"?>
<!-- Created with Inkscape (http://www.inkscape.org/) -->

<svg
   version="1.1"
   id="svg420"
   xml:space="preserve"
   width="682.66669"
   height="682.66669"
   viewBox="0 0 682.66669 682.66669"
   xmlns="http://www.w3.org/2000/svg"
   xmlns:svg="http://www.w3.org/2000/svg"><defs
     id="defs424"><clipPath
       clipPathUnits="userSpaceOnUse"
       id="clipPath434"><path
         d="M 0,512 H 512 V 0 H 0 Z"
         id="path432" /></clipPath></defs><g
     id="g426"
     transform="matrix(1.3333333,0,0,-1.3333333,0,682.66667)"><g
       id="g428"><g
         id="g430"
         clip-path="url(#clipPath434)"><g
           id="g436"
           transform="translate(229.084,30.853)"><path
             d="m 0,0 c 0,5.593 1.969,10.725 5.248,14.746 v 50.467 c -17.247,3.894 -33.101,11.454 -46.706,21.819 V 23.353 H -57.087 C -69.984,23.353 -80.44,12.897 -80.44,0 c 0,-12.897 10.456,-23.353 23.353,-23.353 h 38.982 c 9.019,0 16.838,5.117 20.729,12.602 C 0.951,-7.532 0,-3.878 0,0"
             style="fill:#17d9c3;fill-opacity:1;fill-rule:nonzero;stroke:none"
             id="path438" /></g><g
           id="g440"
           transform="translate(268.0654,93.2725)"><path
             d="m 0,0 v -39.066 h -15.628 c -12.897,0 -23.353,-10.456 -23.353,-23.353 0,-12.898 10.456,-23.353 23.353,-23.353 h 38.982 c 12.897,0 23.353,10.455 23.353,23.353 V 12.214 C 32.48,5.221 16.69,0.927 0,0"
             style="fill:#17d9c3;fill-opacity:1;fill-rule:nonzero;stroke:none"
             id="path442" /></g><g
           id="g444"
           transform="translate(139.6494,271.0337)"><path
             d="m 0,0 h -42.919 c -14.586,0 -26.41,-11.825 -26.41,-26.411 0,-14.586 11.824,-26.411 26.41,-26.411 H 0 Z"
             style="fill:#17d9c3;fill-opacity:1;fill-rule:nonzero;stroke:none"
             id="path446" /></g><g
           id="g448"
           transform="translate(417.291,80.5962)"><path
             d="M 0,0 C -51.914,38.222 -38.577,102.754 -38.575,102.765 -47.669,68.524 -71.327,40.222 -102.519,24.89 -64.336,-13.293 -31.171,-22.948 -7.826,-23.235 4.708,-23.389 10.095,-7.432 0,0"
             style="fill:#17d9c3;fill-opacity:1;fill-rule:nonzero;stroke:none"
             id="path450" /></g><g
           id="g452"
           transform="translate(261.2187,456.5659)"><path
             d="M 0,0 V 0 C -67.141,0 -121.569,-54.428 -121.569,-121.569 V -241.92 c 0,-67.141 54.428,-121.569 121.569,-121.569 67.141,0 121.568,54.428 121.568,121.569 v 120.351 C 121.568,-54.428 67.141,0 0,0"
             style="fill:#88f8d8;fill-opacity:1;fill-rule:nonzero;stroke:none"
             id="path454" /></g><g
           id="g456"
           transform="translate(317.4014,218.2119)"><path
             d="m 0,0 h -51.913 c -14.586,0 -26.41,11.825 -26.41,26.411 0,14.586 11.824,26.411 26.41,26.411 H 0"
             style="fill:none;stroke:#007ea8;stroke-width:15;stroke-linecap:round;stroke-linejoin:round;stroke-miterlimit:10;stroke-dasharray:none;stroke-opacity:1"
             id="path458" /></g><g
           id="g460"
           transform="translate(299.1592,383.584)"><path
             d="m 0,0 c 0,-5.88 -4.768,-10.648 -10.647,-10.648 -5.881,0 -10.649,4.768 -10.649,10.648 0,5.881 4.768,10.648 10.649,10.648 C -4.768,10.648 0,5.881 0,0"
             style="fill:#007ea8;fill-opacity:1;fill-rule:nonzero;stroke:none"
             id="path462" /></g><g
           id="g464"
           transform="translate(177.4932,383.584)"><path
             d="m 0,0 c 0,-5.88 4.768,-10.648 10.648,-10.648 5.881,0 10.648,4.768 10.648,10.648 0,5.881 -4.767,10.648 -10.648,10.648 C 4.768,10.648 0,5.881 0,0"
             style="fill:#007ea8;fill-opacity:1;fill-rule:nonzero;stroke:none"
             id="path466" /></g><g
           id="g468"
           transform="translate(288.5117,331.999)"><path
             d="M 0,0 -24.811,17.856 -49.621,0 -74.432,17.856 -99.241,0 -124.052,17.856 -148.862,0"
             style="fill:none;stroke:#007ea8;stroke-width:15;stroke-linecap:round;stroke-linejoin:round;stroke-miterlimit:10;stroke-dasharray:none;stroke-opacity:1"
             id="path470" /></g><g
           id="g472"
           transform="translate(187.626,117.8848)"><path
             d="m 0,0 v -35.679 c 14.311,-7.984 30.037,-13.723 46.706,-16.72 v 30.58 C 29.459,-17.925 13.605,-10.364 0,0"
             style="fill:#007ea8;fill-opacity:1;fill-rule:nonzero;stroke:none"
             id="path474" /></g><g
           id="g476"
           transform="translate(268.0654,93.2725)"><path
             d="m 0,0 v -30.015 c 16.373,0.732 32.076,4.076 46.707,9.621 V 12.214 C 32.48,5.221 16.69,0.927 0,0"
             style="fill:#007ea8;fill-opacity:1;fill-rule:nonzero;stroke:none"
             id="path478" /></g><g
           id="g480"
           transform="translate(229.084,30.853)"><path
             d="m 0,0 c 0,5.593 1.969,10.725 5.248,14.746 v 50.467 c -17.247,3.894 -33.101,11.454 -46.706,21.819 V 23.353 H -57.087 C -69.984,23.353 -80.44,12.897 -80.44,0 c 0,-12.897 10.456,-23.353 23.353,-23.353 h 38.982 c 9.019,0 16.838,5.117 20.729,12.602 C 0.951,-7.532 0,-3.878 0,0 Z"
             style="fill:none;stroke:#007ea8;stroke-width:15;stroke-linecap:round;stroke-linejoin:round;stroke-miterlimit:10;stroke-dasharray:none;stroke-opacity:1"
             id="path482" /></g><g
           id="g484"
           transform="translate(268.0654,93.2725)"><path
             d="m 0,0 v -39.066 h -15.628 c -12.897,0 -23.353,-10.456 -23.353,-23.353 0,-12.898 10.456,-23.353 23.353,-23.353 h 38.982 c 12.897,0 23.353,10.455 23.353,23.353 V 12.214 C 32.48,5.221 16.69,0.927 0,0 Z"
             style="fill:none;stroke:#007ea8;stroke-width:15;stroke-linecap:round;stroke-linejoin:round;stroke-miterlimit:10;stroke-dasharray:none;stroke-opacity:1"
             id="path486" /></g><g
           id="g488"
           transform="translate(139.6494,271.0337)"><path
             d="m 0,0 h -42.919 c -14.586,0 -26.41,-11.825 -26.41,-26.411 0,-14.586 11.824,-26.411 26.41,-26.411 H 0 Z"
             style="fill:none;stroke:#007ea8;stroke-width:15;stroke-linecap:round;stroke-linejoin:round;stroke-miterlimit:10;stroke-dasharray:none;stroke-opacity:1"
             id="path490" /></g><g
           id="g492"
           transform="translate(261.2187,456.5659)"><path
             d="M 0,0 V 0 C 11.798,0 23.201,-1.687 33.987,-4.822 L 0,47.934 -33.987,-4.822 C -23.201,-1.687 -11.798,0 0,0"
             style="fill:#ffff6f;fill-opacity:1;fill-rule:nonzero;stroke:none"
             id="path494" /></g><g
           id="g496"
           transform="translate(361.4473,403.8018)"><path
             d="M 0,0 0.718,-0.482 2.035,69.562 -56.068,44.49 C -33.205,35.571 -13.709,19.932 0,0"
             style="fill:#ffff6f;fill-opacity:1;fill-rule:nonzero;stroke:none"
             id="path498" /></g><g
           id="g500"
           transform="translate(382.7676,336.5664)"><path
             d="m 0,0 52.341,45.843 -72.944,20.91 0.316,-1.043 C -7.731,46.85 -0.308,24.284 0,0"
             style="fill:#ffff6f;fill-opacity:1;fill-rule:nonzero;stroke:none"
             id="path502" /></g><g
           id="g504"
           transform="translate(382.7871,334.9971)"><path
             d="m 0,0 v -75.881 l 58.893,37.94 z"
             style="fill:#ffff6f;fill-opacity:1;fill-rule:nonzero;stroke:none"
             id="path506" /></g><g
           id="g508"
           transform="translate(382.7871,259.1157)"><path
             d="m 0,0 v -44.47 c 0,-10.818 -1.42,-21.302 -4.071,-31.284 l 60.828,34.687 z"
             style="fill:#ffff6f;fill-opacity:1;fill-rule:nonzero;stroke:none"
             id="path510" /></g><g
           id="g512"
           transform="translate(261.2187,456.5659)"><path
             d="M 0,0 V 0 C 11.798,0 23.201,-1.687 33.987,-4.822 L 0,47.934 -33.987,-4.822 C -23.201,-1.687 -11.798,0 0,0 Z"
             style="fill:none;stroke:#ff9900;stroke-width:15;stroke-linecap:round;stroke-linejoin:round;stroke-miterlimit:10;stroke-dasharray:none;stroke-opacity:1"
             id="path514" /></g><g
           id="g516"
           transform="translate(361.4473,403.8018)"><path
             d="M 0,0 0.718,-0.482 2.035,69.562 -56.068,44.49 C -33.205,35.571 -13.709,19.932 0,0 Z"
             style="fill:none;stroke:#ff9900;stroke-width:15;stroke-linecap:round;stroke-linejoin:round;stroke-miterlimit:10;stroke-dasharray:none;stroke-opacity:1"
             id="path518" /></g><g
           id="g520"
           transform="translate(382.7676,336.5664)"><path
             d="m 0,0 52.341,45.843 -72.944,20.91 0.316,-1.043 C -7.731,46.85 -0.308,24.284 0,0 Z"
             style="fill:none;stroke:#ff9900;stroke-width:15;stroke-linecap:round;stroke-linejoin:round;stroke-miterlimit:10;stroke-dasharray:none;stroke-opacity:1"
             id="path522" /></g><g
           id="g524"
           transform="translate(382.7871,334.9971)"><path
             d="m 0,0 v -75.881 l 58.893,37.94 z"
             style="fill:none;stroke:#ff9900;stroke-width:15;stroke-linecap:round;stroke-linejoin:round;stroke-miterlimit:10;stroke-dasharray:none;stroke-opacity:1"
             id="path526" /></g><g
           id="g528"
           transform="translate(382.7871,259.1157)"><path
             d="m 0,0 v -44.47 c 0,-10.818 -1.42,-21.302 -4.071,-31.284 l 60.828,34.687 z"
             style="fill:none;stroke:#ff9900;stroke-width:15;stroke-linecap:round;stroke-linejoin:round;stroke-miterlimit:10;stroke-dasharray:none;stroke-opacity:1"
             id="path530" /></g><g
           id="g532"
           transform="translate(417.291,80.5962)"><path
             d="M 0,0 C -51.914,38.222 -38.577,102.754 -38.575,102.765 -47.669,68.524 -71.327,40.222 -102.519,24.89 -64.336,-13.293 -31.171,-22.948 -7.826,-23.235 4.708,-23.389 10.095,-7.432 0,0 Z"
             style="fill:none;stroke:#007ea8;stroke-width:15;stroke-linecap:round;stroke-linejoin:round;stroke-miterlimit:10;stroke-dasharray:none;stroke-opacity:1"
             id="path534" /></g><g
           id="g536"
           transform="translate(261.2187,456.5659)"><path
             d="M 0,0 V 0 C -67.141,0 -121.569,-54.428 -121.569,-121.569 V -241.92 c 0,-67.141 54.428,-121.569 121.569,-121.569 67.141,0 121.568,54.428 121.568,121.569 v 120.351 C 121.568,-54.428 67.141,0 0,0 Z"
             style="fill:none;stroke:#007ea8;stroke-width:15;stroke-linecap:round;stroke-linejoin:round;stroke-miterlimit:10;stroke-dasharray:none;stroke-opacity:1"
             id="path538" /></g></g></g></g></svg>
